<svg xmlns="http://www.w3.org/2000/svg" viewBox="0 0 820 500"><rect width="820" height="500" fill="#F4F2EE"/><circle cx="410" cy="99" r="58" fill="#E5E7DF" stroke="#5E6A5E" stroke-width="3"/><path d="M380 152v80M440 152v80M379 226c-90 25-146 91-165 190M441 226c90 25 146 91 165 190" fill="none" stroke="#5E6A5E" stroke-width="4" stroke-linecap="round"/><path d="M410 157v107" stroke="#485345" stroke-width="7" stroke-linecap="round"/><g fill="#5E6A5E"><circle cx="410" cy="190" r="12"/><circle cx="410" cy="79" r="12"/><circle cx="304" cy="278" r="12"/><circle cx="591" cy="348" r="12"/></g><g font-family="Montserrat,Arial" font-size="18" fill="#485345"><text x="445" y="196">NEK</text><text x="445" y="84">HOOFDPIJN</text><text x="183" y="283">SCHOUDER</text><text x="620" y="354">ARM</text></g><g stroke="#AEA896" stroke-width="2" stroke-dasharray="5 7"><path d="M422 190h18"/><path d="M422 79h18"/><path d="M316 278h-18"/><path d="M603 348h15"/></g></svg>